PathFileType	3	(X/Y/Z)	walking_1__view2_aligned.trc
DataRate	CameraRate	NumFrames	NumMarkers	Units	OrigDataRate	OrigDataStartFrame	OrigNumFrames
100.0	100.0	18	19	mm	100.0	1527	6105
Frame#	Time	pelvis			neck			head			hip_left			hip_right			knee_left			knee_right			ankle_left			ankle_right			heel_left			heel_right			toe_left			toe_right			shoulder_left			shoulder_right			elbow_left			elbow_right			wrist_left			wrist_right			
		X1	Y1	Z1	X2	Y2	Z2	X3	Y3	Z3	X4	Y4	Z4	X5	Y5	Z5	X6	Y6	Z6	X7	Y7	Z7	X8	Y8	Z8	X9	Y9	Z9	X10	Y10	Z10	X11	Y11	Z11	X12	Y12	Z12	X13	Y13	Z13	X14	Y14	Z14	X15	Y15	Z15	X16	Y16	Z16	X17	Y17	Z17	X18	Y18	Z18	X19	Y19	Z19	
1527	15.26000	30.741613	930.530012	278.727515	33.500173	1489.655859	332.790137	47.327979	1552.343524	494.197180	106.457533	929.814980	276.058547	-44.974308	931.245043	281.396483	131.897415	521.609974	461.791138	-81.873795	485.214729	261.491317	132.124139	100.653645	483.020257	-87.120734	165.134002	6.323669	128.801604	45.323636	456.613882	-86.705033	138.824671	-44.749154	113.956490	68.695188	685.162977	-90.592032	44.055528	137.072244	206.789440	1436.132304	250.187062	-155.492731	1427.219550	325.374086	290.155592	1147.581308	195.861241	-215.891931	1130.014052	356.837426	389.261903	896.498867	249.717917	-185.446139	924.831190	541.105429
1528	15.27000	32.356801	929.746501	279.364213	35.443821	1488.951328	332.737804	48.692050	1552.046954	493.956849	108.109771	929.098195	276.622236	-43.396217	930.394805	282.106186	132.571824	520.111753	458.783080	-80.870421	486.049848	267.247355	132.198179	98.150927	482.365740	-86.224262	168.689965	6.520673	128.692459	42.515714	456.256995	-85.740404	143.359829	-45.144090	114.845921	67.245293	684.987454	-89.398675	44.482273	134.703965	208.780889	1435.329390	251.103718	-153.205041	1426.799198	324.496501	292.268064	1146.660734	197.539584	-214.021766	1129.726023	355.102996	390.424713	894.875974	250.798577	-184.962060	923.995172	538.814152
1529	15.28000	33.971990	928.962990	280.000911	37.387468	1488.246797	332.685470	50.056120	1551.750385	493.716517	109.762009	928.381410	277.185925	-41.818127	929.544568	282.815888	133.246233	518.613532	455.775023	-79.867047	486.884966	273.003393	132.272220	95.648209	481.711222	-85.327791	172.245929	6.717676	128.583313	39.707792	455.900108	-84.775775	147.894988	-45.539025	115.735352	65.795397	684.811932	-88.205318	44.909017	132.335686	210.772339	1434.526476	252.020374	-150.917350	1426.378847	323.618916	294.380535	1145.740159	199.217928	-212.151602	1129.437994	353.368566	391.587524	893.253082	251.879237	-184.477981	923.159155	536.522875
1530	15.29000	35.587179	928.179480	280.637609	39.331116	1487.542266	332.633137	51.420191	1551.453816	493.476185	111.414247	927.664625	277.749613	-40.240036	928.694330	283.525591	133.920642	517.115311	452.766965	-78.863674	487.720084	278.759431	132.346260	93.145492	481.056704	-84.431319	175.801892	6.914679	128.474168	36.899870	455.543221	-83.811146	152.430146	-45.933960	116.624783	64.345502	684.636409	-87.011962	45.335762	129.967406	212.763788	1433.723562	252.937030	-148.629660	1425.958495	322.741332	296.493007	1144.819585	200.896272	-210.281438	1129.149965	351.634136	392.750334	891.630190	252.959897	-183.993902	922.323137	534.231599
1531	15.30000	37.202367	927.395969	281.274307	41.274763	1486.837735	332.580804	52.784261	1551.157246	493.235853	113.066485	926.947840	278.313302	-38.661946	927.844092	284.235293	134.595051	515.617090	449.758908	-77.860300	488.555203	284.515469	132.420300	90.642774	480.402186	-83.534848	179.357856	7.111682	128.365023	34.091948	455.186334	-82.846516	156.965305	-46.328896	117.514214	62.895607	684.460886	-85.818605	45.762507	127.599127	214.755237	1432.920648	253.853686	-146.341969	1425.538144	321.863747	298.605478	1143.899011	202.574615	-208.411274	1128.861936	349.899706	393.913145	890.007297	254.040557	-183.509823	921.487120	531.940322
1532	15.31000	38.817556	926.612458	281.911005	43.218411	1486.133204	332.528470	54.148332	1550.860677	492.995521	114.718723	926.231055	278.876991	-37.083855	926.993855	284.944995	135.269460	514.118868	446.750850	-76.856927	489.390321	290.271508	132.494341	88.140056	479.747668	-82.638376	182.913819	7.308685	128.255878	31.284026	454.829448	-81.881887	161.500463	-46.723831	118.403645	61.445712	684.285364	-84.625248	46.189251	125.230847	216.746687	1432.117734	254.770343	-144.054279	1425.117793	320.986162	300.717949	1142.978436	204.252959	-206.541110	1128.573907	348.165276	395.075955	888.384405	255.121217	-183.025744	920.651102	529.649045
1533	15.32000	40.432745	925.828948	282.547703	45.162058	1485.428673	332.476137	55.512402	1550.564108	492.755190	116.370961	925.514270	279.440679	-35.505764	926.143617	285.654698	135.943870	512.620647	443.742793	-75.853553	490.225439	296.027546	132.568381	85.637338	479.093150	-81.741905	186.469783	7.505689	128.146733	28.476104	454.472561	-80.917258	166.035622	-47.118767	119.293076	59.995817	684.109841	-83.431891	46.615996	122.862568	218.738136	1431.314820	255.686999	-141.766588	1424.697441	320.108577	302.830421	1142.057862	205.931303	-204.670946	1128.285878	346.430846	396.238766	886.761512	256.201876	-182.541666	919.815085	527.357768
1534	15.33000	42.047934	925.045437	283.184402	47.105705	1484.724142	332.423803	56.876472	1550.267538	492.514858	118.023199	924.797485	280.004368	-33.927674	925.293379	286.364400	136.618279	511.122426	440.734735	-74.850179	491.060558	301.783584	132.642422	83.134620	478.438633	-80.845433	190.025746	7.702692	128.037588	25.668181	454.115674	-79.952628	170.570780	-47.513702	120.182507	58.545922	683.934318	-82.238535	47.042741	120.494289	220.729586	1430.511906	256.603655	-139.478898	1424.277090	319.230992	304.942892	1141.137288	207.609647	-202.800781	1127.997849	344.696416	397.401576	885.138620	257.282536	-182.057587	918.979067	525.066492
1535	15.34000	43.663122	924.261926	283.821100	49.049353	1484.019611	332.371470	58.240543	1549.970969	492.274526	119.675437	924.080700	280.568057	-32.349583	924.443142	287.074103	137.292688	509.624205	437.726677	-73.846806	491.895676	307.539622	132.716462	80.631902	477.784115	-79.948962	193.581710	7.899695	127.928443	22.860259	453.758787	-78.987999	175.105939	-47.908637	121.071938	57.096026	683.758796	-81.045178	47.469485	118.126009	222.721035	1429.708992	257.520311	-137.191207	1423.856739	318.353407	307.055364	1140.216713	209.287990	-200.930617	1127.709820	342.961986	398.564387	883.515728	258.363196	-181.573508	918.143050	522.775215
1536	15.35000	45.278311	923.478416	284.457798	50.993000	1483.315080	332.319137	59.604613	1549.674400	492.034194	121.327675	923.363915	281.131746	-30.771492	923.592904	287.783805	137.967097	508.125984	434.718620	-72.843432	492.730794	313.295660	132.790503	78.129185	477.129597	-79.052490	197.137674	8.096698	127.819298	20.052337	453.401900	-78.023370	179.641097	-48.303573	121.961369	55.646131	683.583273	-79.851821	47.896230	115.757730	224.712484	1428.906078	258.436967	-134.903516	1423.436387	317.475823	309.167835	1139.296139	210.966334	-199.060453	1127.421791	341.227556	399.727197	881.892835	259.443856	-181.089429	917.307032	520.483938
1537	15.36000	46.893500	922.694905	285.094496	52.936648	1482.610549	332.266803	60.968684	1549.377830	491.793863	122.979912	922.647129	281.695434	-29.193402	922.742666	288.493508	138.641506	506.627763	431.710562	-71.840058	493.565913	319.051698	132.864543	75.626467	476.475079	-78.156019	200.693637	8.293701	127.710153	17.244415	453.045013	-77.058741	184.176255	-48.698508	122.850800	54.196236	683.407750	-78.658465	48.322975	113.389450	226.703934	1428.103164	259.353623	-132.615826	1423.016036	316.598238	311.280307	1138.375565	212.644678	-197.190289	1127.133762	339.493126	400.890008	880.269943	260.524516	-180.605350	916.471014	518.192661
1538	15.37000	49.660588	922.365418	285.543578	54.689466	1482.709300	332.346234	61.634183	1549.709968	491.598067	125.796517	922.525752	282.117638	-26.475781	922.205071	288.969473	140.860878	505.713819	427.713167	-69.184694	494.999515	326.583990	134.355532	75.540142	469.366740	-75.464923	202.387415	16.636681	128.984749	17.465234	445.699071	-74.279983	186.050862	-40.296353	125.818650	53.043736	675.401579	-75.975626	49.623295	121.010582	228.487997	1428.788996	260.680844	-129.981543	1423.293825	315.277278	314.049851	1139.381596	214.609407	-194.444354	1127.613849	336.055466	402.896278	880.535641	263.103834	-180.400065	915.054542	511.988454
1539	15.38000	52.427676	922.035930	285.992659	56.442284	1482.808050	332.425665	62.299681	1550.042105	491.402271	128.613121	922.404374	282.539841	-23.758159	921.667475	289.445438	143.080249	504.799876	423.715771	-66.529329	496.433118	334.116282	135.846521	75.453817	462.258400	-72.773828	204.081193	24.979660	130.259346	17.686053	438.353128	-71.501226	187.925468	-31.894198	128.786500	51.891237	667.395408	-73.292788	50.923614	128.631713	230.272061	1429.474828	262.008065	-127.347261	1423.571613	313.956318	316.819395	1140.387627	216.574137	-191.698419	1128.093936	332.617807	404.902549	880.801339	265.683153	-180.194780	913.638070	505.784247
1540	15.39000	55.194765	921.706443	286.441741	58.195101	1482.906801	332.505097	62.965180	1550.374242	491.206475	131.429725	922.282996	282.962045	-21.040538	921.129879	289.921403	145.299621	503.885932	419.718375	-63.873964	497.866721	341.648574	137.337511	75.367492	455.150061	-70.082732	205.774971	33.322639	131.533943	17.906871	431.007185	-68.722469	189.800074	-23.492043	131.754351	50.738737	659.389237	-70.609950	52.223934	136.252844	232.056124	1430.160660	263.335286	-124.712978	1423.849402	312.635359	319.588939	1141.393658	218.538866	-188.952484	1128.574022	329.180147	406.908819	881.067037	268.262471	-179.989495	912.221597	499.580040
1541	15.40000	57.961853	921.376955	286.890823	59.947919	1483.005551	332.584528	63.630679	1550.706379	491.010679	134.246329	922.161618	283.384249	-18.322917	920.592283	290.397368	147.518992	502.971989	415.720980	-61.218600	499.300324	349.180867	138.828500	75.281167	448.041722	-67.391637	207.468749	41.665618	132.808539	18.127690	423.661242	-65.943712	191.674680	-15.089888	134.722201	49.586237	651.383066	-67.927111	53.524254	143.873976	233.840188	1430.846491	264.662507	-122.078696	1424.127191	311.314399	322.358483	1142.399690	220.503596	-186.206549	1129.054109	325.742487	408.915090	881.332735	270.841789	-179.784209	910.805125	493.375833
1542	15.41000	60.728941	921.047468	287.339905	61.700737	1483.104302	332.663959	64.296178	1551.038516	490.814884	137.062934	922.040241	283.806452	-15.605296	920.054688	290.873333	149.738364	502.058045	411.723584	-58.563235	500.733926	356.713159	140.319489	75.194842	440.933382	-64.700541	209.162527	50.008597	134.083136	18.348508	416.315299	-63.164955	193.549286	-6.687733	137.690051	48.433738	643.376895	-65.244273	54.824573	151.495107	235.624251	1431.532323	265.989728	-119.444413	1424.404980	309.993439	325.128028	1143.405721	222.468325	-183.460613	1129.534196	322.304828	410.921361	881.598434	273.421108	-179.578924	909.388653	487.171626
1543	15.42000	63.496029	920.717980	287.788987	63.453555	1483.203052	332.743390	64.961676	1551.370653	490.619088	139.879538	921.918863	284.228656	-12.887674	919.517092	291.349298	151.957735	501.144102	407.726188	-55.907870	502.167529	364.245451	141.810478	75.108517	433.825043	-62.009446	210.856305	58.351577	135.357733	18.569327	408.969357	-60.386198	195.423892	1.714422	140.657901	47.281238	635.370724	-62.561435	56.124893	159.116239	237.408314	1432.218155	267.316949	-116.810130	1424.682768	308.672479	327.897572	1144.411752	224.433055	-180.714678	1130.014283	318.867168	412.927631	881.864132	276.000426	-179.373639	907.972180	480.967419
1544	15.43000	66.263118	920.388493	288.238069	65.206373	1483.301803	332.822821	65.627175	1551.702790	490.423292	142.696142	921.797485	284.650859	-10.170053	918.979496	291.825263	154.177107	500.230158	403.728793	-53.252505	503.601132	371.777743	143.301468	75.022192	426.716704	-59.318350	212.550083	66.694556	136.632329	18.790146	401.623414	-57.607441	197.298498	10.116576	143.625752	46.128738	627.364553	-59.878596	57.425213	166.737370	239.192378	1432.903987	268.644170	-114.175848	1424.960557	307.351520	330.667116	1145.417784	226.397784	-177.968743	1130.494369	315.429509	414.933902	882.129830	278.579744	-179.168354	906.555708	474.763211
